<mxfile host="app.diagrams.net" modified="2025-09-19T20:00:00.000Z" agent="BMC Generator" version="22.1.11">
  <diagram name="BMC Input - Architecture" id="arch">
    <mxGraphModel dx="1600" dy="900" grid="1" gridSize="10" guides="1" tooltips="1" connect="1" arrows="1" fold="1" page="1" pageScale="1" pageWidth="1600" pageHeight="900">
      <root>
        <mxCell id="0"/>
        <mxCell id="1" parent="0"/>
        
        <!-- Title -->
        <mxCell id="title" value="BMC Input AWS Architecture" style="rounded=0;whiteSpace=wrap;html=1;fillColor=#232F3E;strokeColor=none;fontColor=#FFFFFF;fontSize=18;fontStyle=1;align=center;" vertex="1" parent="1">
          <mxGeometry x="50" y="20" width="1500" height="50" as="geometry"/>
        </mxCell>
        
        <!-- AWS Cloud -->
        <mxCell id="aws" value="AWS Cloud" style="rounded=1;whiteSpace=wrap;html=1;fillColor=#E3F2FD;strokeColor=#1976D2;strokeWidth=2;fontSize=14;fontStyle=1;verticalAlign=top;spacingTop=15;" vertex="1" parent="1">
          <mxGeometry x="100" y="100" width="1400" height="700" as="geometry"/>
        </mxCell>
        
        <!-- Microservices -->
        <mxCell id="services" value="ECS Fargate Services" style="rounded=1;whiteSpace=wrap;html=1;fillColor=#E8F5E8;strokeColor=#4CAF50;strokeWidth=2;fontSize=12;fontStyle=1;verticalAlign=top;spacingTop=10;" vertex="1" parent="1">
          <mxGeometry x="200" y="200" width="600" height="200" as="geometry"/>
        </mxCell>
        
        <!-- Service 1 -->
        <mxCell id="service1" value="Invoice Service" style="sketch=0;outlineConnect=0;fontColor=#232F3E;gradientColor=#F78E04;gradientDirection=north;fillColor=#D05C17;strokeColor=#ffffff;shape=mxgraph.aws4.fargate;" vertex="1" parent="1">
          <mxGeometry x="300" y="250" width="40" height="40" as="geometry"/>
        </mxCell>
        
        <!-- Service 2 -->
        <mxCell id="service2" value="Product Service" style="sketch=0;outlineConnect=0;fontColor=#232F3E;gradientColor=#F78E04;gradientDirection=north;fillColor=#D05C17;strokeColor=#ffffff;shape=mxgraph.aws4.fargate;" vertex="1" parent="1">
          <mxGeometry x="500" y="250" width="40" height="40" as="geometry"/>
        </mxCell>
        
        <!-- Database -->
        <mxCell id="database" value="RDS PostgreSQL" style="sketch=0;outlineConnect=0;fontColor=#232F3E;gradientColor=#4AB29A;gradientDirection=north;fillColor=#116D5B;strokeColor=#ffffff;shape=mxgraph.aws4.rds;" vertex="1" parent="1">
          <mxGeometry x="300" y="500" width="40" height="40" as="geometry"/>
        </mxCell>
        
        <!-- Storage -->
        <mxCell id="storage" value="S3 Storage" style="sketch=0;outlineConnect=0;fontColor=#232F3E;gradientColor=#60A337;gradientDirection=north;fillColor=#277116;strokeColor=#ffffff;shape=mxgraph.aws4.s3;" vertex="1" parent="1">
          <mxGeometry x="500" y="500" width="40" height="40" as="geometry"/>
        </mxCell>
        
        <!-- Connections -->
        <mxCell id="c1" style="endArrow=classic;html=1;strokeColor=#4CAF50;strokeWidth=2;" edge="1" parent="1" source="service1" target="database"/>
        <mxCell id="c2" style="endArrow=classic;html=1;strokeColor=#4CAF50;strokeWidth=2;" edge="1" parent="1" source="service2" target="storage"/>
        
      </root>
    </mxGraphModel>
  </diagram>
</mxfile>